<?xml version="1.0" encoding="utf-8"?>
<!-- Generator: Adobe Illustrator 24.1.2, SVG Export Plug-In . SVG Version: 6.00 Build 0)  -->
<svg version="1.1" id="Layer_1" xmlns="http://www.w3.org/2000/svg" xmlns:xlink="http://www.w3.org/1999/xlink" x="0px" y="0px"
	 viewBox="0 0 4629.62 3012.5" style="enable-background:new 0 0 4629.62 3012.5;" xml:space="preserve">
<style type="text/css">
	.st0{opacity:0.23;fill:#0067A0;}
	.st1{fill:#D2E3F0;}
	.st2{fill:#D37537;}
	.st3{fill:#10B984;}
	.st4{fill:#181719;}
	.st5{fill:#E3F1FA;}
	.st6{fill:#202020;}
	.st7{fill:#FFFFFF;}
	.st8{fill:#0067A0;}
	.st9{opacity:0.5;}
	.st10{fill:#FFC19E;}
	.st11{fill:#9CB4D5;}
	.st12{fill:#859FD2;}
</style>
<g>
	<path class="st0" d="M1433.08,540.64c301.46,193.41,678.53,416.96,1130.13,170.05s621.8-494.41,1035.38-567.39
		s756.87,144.55,900.96,579.1c144.09,434.55,47.96,1168.45-138.82,1494.98c-186.78,326.53-427.84,592.68-938.22,592.68
		c-479.65,0-723.02-238.83-1064.09-252.12c-550.63-21.45-758.07,171.96-1072.05,310.69c-323.86,143.1-848.8,66.87-955.54-276.41
		c-102.9-330.94,71.34-442.66,85.13-641.02c14.93-214.77-64.67-551.85-236.49-916.04C-18.81,614.88,34.57,350.38,225.4,232.36
		C608.05-4.29,1131.62,347.23,1433.08,540.64z"/>
	<g>
		<path class="st1" d="M364.34,2130.65c-48.48,117.58-105.11,241.06-35.72,464.23c106.74,343.28,631.68,419.5,955.54,276.41
			c313.98-138.73,521.42-332.14,1072.05-310.69c341.08,13.29,584.44,252.12,1064.09,252.12c510.38,0,751.44-266.15,938.22-592.68
			c15.5-27.11,30.37-57.07,44.54-89.39H364.34z"/>
	</g>
	<path class="st2" d="M1131.45,2436.07c0,0,34.77-56.77,63.94-96.98s73.38-91.54,73.38-91.54s68.76,34.75,130.37,64.58
		c69.95,33.87,135.38,72.16,135.38,72.16s22.85,2.81,59.71,6.22c32.73,3.03,53.06-1.12,56,7.37c2.99,8.63-20.51,18.63-30.04,21.03
		c-15.4,3.87-35.19,2.93-35.19,2.93s38.73,25.7,72.52,54.14c33.79,28.44,78.46,72.46,72.15,80.8s-36.21-18.51-73.65-44.06
		s-75.32-44.44-77.69-41.37c-2.37,3.08,25.31,25.21,42.99,42.89c17.67,17.67,47.8,56.65,38.4,63.22
		c-8.48,5.93-27.87-14.64-41.65-26.3c-28.59-24.19-47.93-33.71-69.42-47.02c-19.39-12.01-36.79-18.13-39.15-14.76
		c-3.95,5.65,25.29,26.03,46.65,47.38c21.36,21.36,36.78,48.9,28.59,56.83c-5.9,5.72-17.41-9.33-37.44-25.48
		c-20.03-16.14-78.28-51.95-87.66-56.73c-9.38-4.78-15.96-8.48-18.46-5.81c-2.49,2.67,6.59,11,20.06,22.32
		c20.37,17.12,32.5,35.44,27.11,42.11c-5.4,6.67-31.19-15.87-84.78-36.63C1358.61,2515.98,1131.45,2436.07,1131.45,2436.07z"/>
	<path class="st2" d="M1580.4,2130.05l-7.62-604.9c0,0,53.48-34.76,146.72-102.42c93.24-67.66,138.41-97.58,138.41-97.58
		c37.63,636.59,27.09,636.72,20,805.51C1792.39,2130.65,1580.4,2130.05,1580.4,2130.05z"/>
	<path class="st3" d="M339.61,1418.8c52.93-238.16,136.51-353.86,318.84-426.56c158.1-63.04,308.69-83.96,508.14-64.62
		c213.44,20.69,327.24,74.91,402.95,107.29c75.71,32.37,112.26,69.57,128.32,74.8c16.06,5.23,51.48-9.95,72.65,7.12
		c21.17,17.07-10.16,44.02,8.69,59.22c18.85,15.2,46.98-6.8,62.77,8.99c15.79,15.79-14.63,42.3,0.02,59.1
		c14.64,16.79,32.35,0.5,45.61,14.76s11.96,38.35-27.44,65.1c-39.4,26.75-287.18,201.86-287.18,201.86l7.45,604.2l-520.04,12.48
		c0,0,146.69,79.05,208.18,104.61c-39.8,48.38-137.09,189.14-137.09,189.14s-69.17-11.94-218.39-53.44s-418.94-126.93-490.59-162.18
		c-71.64-35.25-170.1-79.01-153.54-271.05C285.49,1757.57,286.67,1656.96,339.61,1418.8z"/>
	<path class="st4" d="M1048.72,738.16c2.27,4.47,401.78-256.28,401.78-256.28s28.16-0.43,32.19-20.56
		c4.03-20.13-23.1-52.28-90.01-74.4c-66.9-22.11-144.67-38.53-188.01-38.53c-43.34,0-132.84,23.8-165.09,132.81
		C996.91,625.46,999.18,732.66,1048.72,738.16z"/>
	<path class="st2" d="M1140,584.36c0,0,24.59-13.04,33.45-65.13c8.85-52.09,32.37-77.1,80.27-77.1c47.9,0,197.16,39.78,197.16,39.78
		s-0.9,70.12-22.53,191.88c-21.64,121.76-68.88,209.94-163.97,201.94c-35.72,142.33-40.47,221.59-165.45,198.69
		c-116.12-29.4-92.9-141.92-77.31-214.93c15.59-73.01,30.52-129.38,39.99-173.74c-39.03-7.96-73.63-29.65-61.93-84.45
		c12.32-57.71,63.16-57.29,86.87-52.97C1120.55,554.53,1140,584.36,1140,584.36z"/>
	<path class="st5" d="M1337.49,682.98c-97.36-22.49-178.79-63.27-178.79-63.27s2.13,37.4-20.56,65.62
		c-35.09,43.64-59.79,46.79-59.79,46.79c8.74,16.78,34.37,119.99,186.04,143.6c0.05-0.19-0.05,0.19,0,0
		c88.73,7.46,135.79-68.83,159.27-177.98C1399.7,695.13,1370.64,690.64,1337.49,682.98z"/>
	<path class="st6" d="M1352.11,727.93c-1.81,0-3.38-1.37-3.58-3.21c-0.21-1.98,1.21-3.76,3.19-3.97
		c13.35-1.45,30.03-11.04,36.08-26.57c4.27-10.95-5.87-26.43-14.82-40.09c-3.02-4.61-5.87-8.96-8.2-13.12
		c-0.97-1.74-0.35-3.93,1.39-4.9c1.74-0.97,3.93-0.35,4.9,1.39c2.2,3.94,4.99,8.19,7.93,12.69c9.9,15.11,21.13,32.24,15.51,46.65
		c-7.43,19.05-26.99,29.48-42.02,31.11C1352.37,727.93,1352.24,727.93,1352.11,727.93z"/>
	<path class="st4" d="M1264.38,875.72c-33.04-5.14-60.09-14.06-82.29-25.04l62.95,103.54L1264.38,875.72
		C1264.37,875.77,1264.35,875.81,1264.38,875.72z"/>
	<path class="st6" d="M1087.96,638.66c-0.51,0-1.02-0.11-1.5-0.33c-1.81-0.83-2.6-2.97-1.77-4.78c6.79-14.76,6.15-22.61-2.2-27.11
		c-11.99-6.46-21.69,3.47-25.52,10.35c-0.97,1.74-3.16,2.37-4.9,1.4c-1.74-0.97-2.37-3.16-1.4-4.9c6.63-11.92,20.5-21.14,35.24-13.2
		c17.72,9.55,8.72,29.11,5.33,36.47C1090.63,637.88,1089.32,638.65,1087.96,638.66z"/>
	<path class="st6" d="M1057.06,2140.55l-196.52-96.93c-132.37-65.32-170.94-66.72-170.94-66.72s22.98-32.26,9.36-55.53
		c-15.57-26.61-44.08-16.36-58.49-11.7c4.53-45.25,51.17-418.9,51.17-418.9l50.37,414.75L1057.06,2140.55z"/>
	<g>
		<path class="st6" d="M1118.33,1124.29c-11.08,0-17.97-0.95-18.23-0.99c-1.97-0.29-3.33-2.12-3.04-4.09
			c0.29-1.97,2.1-3.34,4.09-3.04c0.96,0.14,96.58,13.17,151.15-62.88c1.16-1.62,3.41-1.99,5.03-0.83c1.62,1.16,1.99,3.41,0.83,5.03
			C1215.8,1116.53,1150,1124.29,1118.33,1124.29z"/>
		<path class="st6" d="M1534.47,1483.52c-0.71,0-1.43-0.21-2.05-0.64c-1.63-1.13-2.04-3.38-0.9-5.01
			c0.59-0.85,59.35-85.17,115.76-141.59c1.41-1.41,3.69-1.41,5.1,0s1.41,3.69,0,5.1c-55.96,55.95-114.36,139.76-114.94,140.6
			C1536.73,1482.97,1535.61,1483.52,1534.47,1483.52z"/>
		<path class="st6" d="M1543.88,1511.73c-0.93,0-1.85-0.36-2.56-1.06c-1.4-1.41-1.4-3.69,0.02-5.1
			c1.11-1.1,111.78-110.86,169.12-156.22c1.56-1.23,3.83-0.97,5.06,0.59c1.24,1.56,0.97,3.83-0.59,5.06
			c-57.03,45.11-167.41,154.58-168.52,155.68C1545.72,1511.39,1544.8,1511.73,1543.88,1511.73z"/>
		<path class="st6" d="M486.42,1982.83c-1.47,0-2.85-0.91-3.39-2.37c-0.68-1.87,0.29-3.94,2.16-4.62l139.56-50.75
			c1.88-0.68,3.94,0.29,4.62,2.16c0.68,1.87-0.29,3.94-2.16,4.62l-139.56,50.75C487.24,1982.76,486.83,1982.83,486.42,1982.83z"/>
		<path class="st6" d="M514.47,2085c-1.22,0-2.42-0.62-3.09-1.75c-1.02-1.71-0.47-3.92,1.24-4.94l151.58-90.81
			c1.71-1.02,3.92-0.47,4.94,1.24c1.02,1.71,0.47,3.92-1.24,4.94l-151.58,90.81C515.74,2084.83,515.1,2085,514.47,2085z"/>
	</g>
	<path class="st6" d="M1158.92,623.82c-1.65,0-3.13-1.13-3.51-2.81c-4.54-20.06-17.85-33.61-17.99-33.75
		c-1.4-1.41-1.4-3.69,0.01-5.1c1.41-1.41,3.69-1.4,5.09,0c0.61,0.61,14.9,15.09,19.92,37.25c0.44,1.94-0.78,3.87-2.72,4.31
		C1159.45,623.79,1159.18,623.82,1158.92,623.82z"/>
	<path class="st7" d="M3440.96,2130.65l-25.02-239.05c0,0-98.01,136.63-127.36,176.77c-29.36,40.14-76.31,109.39-174.5,109.18
		c-91.23-0.2-889.2-24.66-889.2-24.66l14.54-285.32l137.47-5.83l-21.96-182.53l218.43-71.66l111.3,227.51l41.47-2.43
		c0,0,67.1-567.56,80.4-656.18c13.3-88.62,46-218.46,118.74-303.91c84.07-98.76,190.98-219.26,363.58-241.02
		c237.77-29.99,431.79,82.66,566.29,225c201.29,213.03,341.03,553.49,457.95,899.62c78.72,233.03,89.95,374.52,89.95,374.52H3440.96
		z"/>
	<path class="st8" d="M2541.9,1541.08c0,0-47.87-103.39-81.29-166.26s-69.5-124.88-140.27-181.77
		c-70.77-56.89-96.1-80.32-107.7-90.57c-11.6-10.25-25.35-17.37-30.03-13.14c-4.68,4.23,0.66,24.36,24.17,54.2
		s48.34,64.46,32.61,84.94s-68.64,14.7-105.45,6.83c-31.62-6.76-74.96-19.76-82.58-2.83c-7.62,16.92,28.22,37.54,77.71,54.74
		c-16.2,5.29-30.82,15.8-30.36,29.73c0.38,11.65,12.74,18.72,12.74,18.72s-8.66,9.91-8.34,19.66c0.54,16.52,18.25,23.44,18.25,23.44
		s-18.3,38.8,25.48,41.06c43.78,2.25,108.08-0.99,124.42-2.04c16.34-1.05,31.16-1.38,41.81,27.92
		c10.64,29.3,53.22,159.65,53.22,159.65L2541.9,1541.08z"/>
	<path class="st8" d="M1767.28,1793.71c20.6,6.1,133.28,48.07,189.69,61.56c56.41,13.5,93.29,29.95,207.69,16.58
		c-3.74,60.21-11.92,213.86-11.92,213.86s-19.24-10.12-92.33-10.12c-99.01,0-179.32,19.79-232.8,25.1
		c-56.94,5.66-103.38-3.86-123.98-11.78c-20.6-7.93-27.56-13.52-26.32-18.97c1.24-5.45,21.52-4.03,43.33,0.18
		c23.38,4.51,49.41,4.98,49.89,0.02c0.48-4.95-54.95-10.69-84.03-21.36c-29.08-10.67-47.31-19.13-45.11-25.75
		c2.2-6.61,19.89-1.43,54.49,1.34c28.9,2.31,106.25,10.07,102.4-3.14c-1.34-4.59-98.15-8.77-137.13-21.96s-56.66-23.56-53.89-31.74
		c2.77-8.18,51.34,1.04,94.06,1.04c44.78,0,129.95-16.12,135.42-76.17c2.6-28.57-49.49-49.94-75.94-63.17
		c-26.45-13.23-44.14-22.25-39.46-33.6C1725.98,1784.3,1746.69,1787.61,1767.28,1793.71z"/>
	<g class="st9">
		<polygon class="st7" points="1870.59,1434.11 1909.27,1476.8 2130.81,1275.64 2093.67,1236.61 		"/>
	</g>
	
		<rect x="2104.36" y="1212.59" transform="matrix(0.7379 -0.675 0.675 0.7379 -290.262 1756.505)" class="st6" width="23.6" height="78.68"/>
	
		<rect x="2204.97" y="1128.31" transform="matrix(0.7379 -0.675 0.675 0.7379 -207.5823 1800.829)" class="st6" width="19.19" height="78.68"/>
	<path class="st6" d="M2069.53,1257.16c-0.85,0-1.39-0.06-1.48-0.07c-1.98-0.24-3.38-2.04-3.14-4.02c0.25-1.98,2.05-3.37,4.02-3.14
		c0.19,0.03,5.21,0.51,8-3.41c5.7-8.02-0.66-13.93-0.93-14.18c-1.48-1.34-1.59-3.61-0.25-5.09c1.33-1.47,3.61-1.59,5.09-0.25
		c3.96,3.58,9.46,13.15,1.97,23.69C2078.72,1256.45,2072.39,1257.16,2069.53,1257.16z"/>
	<g>
		<path class="st7" d="M2199.35,1413.61c-1.49,0-2.89-0.94-3.41-2.43c-0.65-1.88,0.35-3.93,2.23-4.58
			c36.57-12.62,41.22-21.19,40.74-25.17c-0.74-6.09-10.94-10.34-14.45-11.35l-13.72-3.94l13.94-3.05
			c16.8-3.67,27.64-6.77,27.08-16.37c-0.64-10.8-25.4-13.63-34.04-13.76v-7.21c10.58,0,18.48-2.18,22.19-6.14
			c1.95-2.08,2.79-4.67,2.57-7.9c-0.45-6.79-7.43-9.81-28.72-12.42c-19.06-2.34-66.08-6.74-66.55-6.79
			c-1.98-0.18-3.44-1.94-3.25-3.92c0.18-1.98,1.91-3.44,3.92-3.25c0.47,0.04,47.59,4.45,66.76,6.81c18.63,2.29,34.12,5.3,35.03,19.1
			c0.35,5.26-1.17,9.74-4.51,13.3c-1.55,1.66-3.45,3.07-5.69,4.24c9.64,2.7,18.91,7.83,19.48,17.52
			c0.77,12.95-10.08,18.12-22.38,21.41c4.44,2.8,8.78,6.99,9.49,12.85c1.37,11.37-12.67,21.5-45.54,32.85
			C2200.14,1413.54,2199.74,1413.61,2199.35,1413.61z"/>
		<path class="st7" d="M2136.36,1335.9l-0.25-7.2l81.63-2.82c1.98-0.04,3.66,1.49,3.72,3.48s-1.49,3.66-3.48,3.72L2136.36,1335.9z"
			/>
		<path class="st7" d="M2144.44,1381.49c-1.72,0-3.25-1.24-3.55-3c-0.33-1.96,0.98-3.82,2.95-4.16c0.47-0.08,47.38-8.05,83.75-10.9
			c2.01-0.18,3.72,1.33,3.87,3.31c0.15,1.98-1.33,3.72-3.31,3.87c-36.04,2.82-82.64,10.74-83.1,10.82
			C2144.84,1381.48,2144.64,1381.49,2144.44,1381.49z"/>
		<path class="st7" d="M2356.2,1325.72c-0.4,0-0.8-0.07-1.19-0.2c-69.69-24.41-71.7-61.67-71.76-63.25
			c-0.06-1.99,1.49-3.65,3.48-3.72c2.04-0.08,3.64,1.48,3.72,3.46c0.03,0.48,2.5,34.14,66.94,56.71c1.88,0.66,2.87,2.71,2.21,4.59
			C2359.08,1324.79,2357.69,1325.72,2356.2,1325.72z"/>
	</g>
	<path class="st10" d="M2387.06,1668.67l186.83-59.55c0,0-13.64-29.27-31.99-68.05l-175.61,64.26L2387.06,1668.67z"/>
	<path class="st10" d="M2152.73,2085.71c41.68,7.88,74.2,17.48,74.2,17.48s8.74-175.42,12.48-235.62c-25.65,3-49.33,3.4-74.76,4.28
		L2152.73,2085.71z"/>
	<path class="st6" d="M3150.73,1529.55c-1.12,0-2.22-0.52-2.92-1.49c-103.27-143-185.32-341.7-186.13-343.69
		c-0.75-1.84,0.12-3.94,1.97-4.7c1.84-0.76,3.95,0.13,4.7,1.97c0.81,1.98,82.55,199.91,185.31,342.2c1.17,1.61,0.8,3.87-0.81,5.03
		C3152.2,1529.32,3151.46,1529.55,3150.73,1529.55z"/>
	<path class="st6" d="M2377.9,1864.25c-1.86,0-3.43-1.43-3.59-3.31c-0.16-1.98,1.32-3.72,3.3-3.88
		c5.55-0.45,556.04-45.27,603.79-52.29c45.72-6.72,62.09-34.5,77.38-67.4c14.53-31.24,275.08-665.96,277.71-672.36
		c0.75-1.84,2.86-2.72,4.7-1.97c1.84,0.76,2.72,2.86,1.97,4.7c-2.63,6.41-263.25,641.27-277.84,672.66
		c-15.59,33.54-33.66,64.25-82.87,71.49C2934.47,1818.95,2378,1864.25,2377.9,1864.25z"/>
	<g>
		<path class="st8" d="M3060.71,584.96c0,0,43.77-14.09,46.94-36.25c3.17-22.17-21.05-36.63-16.45-50.62
			c4.61-13.99,33.07-38.1,16.5-66.27c-16.57-28.16-44.46-20.21-55.18-46.95c-5.84-14.57-5.09-44.25-36.27-51.37
			c-24.72-5.65-56.59-7.08-67.51-31.98c-10.93-24.9-21.84-59.75-59.29-54.83s-46.82-2.3-57.11-15.56
			c-16.32-21.03-55.02-15.31-65.5,3.42c-9.99,17.85-27.07,22.38-48.17,17.18c-31.75-7.82-54.52-3.08-63.29,25.15
			c-6.28,20.21-13.65,45.47-41.67,53.85c-26.88,8.04-53.35,23.08-44.45,59.24c8.08,32.82,1.88,52.91-15.82,67.77
			c-26.26,22.06-29.5,58.78-0.36,74.43c21.63,11.61,27.96,18.63,28.24,40.23c0.28,21.6,22.75,53.99,91.47,44.5L3060.71,584.96z"/>
		<path class="st10" d="M2680.43,649.72c94.63,114.78,196.95,170.92,282.04,118.67c39.97,48.09,43.11,54.97,69.34,79.86
			c26.22,24.89,87.32,65.92,136.89,16.81c49.57-49.11,55-104.37,5.09-171.12c-68.13-91.11-131.07-174.01-131.07-174.01
			s18.07-13.7,24.15-45.39c5.03-26.19,2.85-60.55-32.93-85.66c-19.2-13.47-48.9-15.25-65.86-6.88
			c-29.29,14.46-49.59,42.49-49.59,42.49s-16.39-6.84-30.89-1.04c-34.77,13.9-49.4-6.68-56.74-21.17
			c-7.34-14.48-30.39-21.39-49.94-5.35c-19.56,16.04-36.99,11.64-52.04,8.06c-20.4-4.85-39.18-4.28-45.44,22.54
			c-5.66,24.24-12.54,40.54-34.13,44.5C2611.18,479.02,2574.82,521.62,2680.43,649.72z"/>
		<path class="st6" d="M3120.57,924.05c-24.08,0-40.69-5.83-41.11-5.99c-1.87-0.68-2.83-2.75-2.14-4.62
			c0.68-1.87,2.75-2.83,4.62-2.15c4.19,1.53,103.32,36.07,167.23-78.37c0.97-1.74,3.16-2.36,4.9-1.39c1.74,0.97,2.36,3.17,1.39,4.9
			C3214.56,909.67,3158.37,924.05,3120.57,924.05z"/>
		<path class="st5" d="M3038.74,537.84c0,0-39.64,9.35-67.43-0.88c-29.11-10.71-44.51-47.51-47.51-82.56
			c-9.12,41.83-28.94,83.74-102.82,152.19c-43.8,40.58-88.85,59.76-118.28,68.66c95.14,109.5,197.61,137.31,259.77,93.29
			c21.01-14.87,33-29.11,47.64-49.48C3050.14,663.35,3038.74,537.84,3038.74,537.84z"/>
		<path class="st6" d="M2976.42,470.55c-1.85,0-3.42-1.41-3.58-3.29c-0.05-0.57-1.14-14.15,6.32-23c3.63-4.31,8.58-6.75,14.71-7.26
			c6.36-0.53,11.83,1.16,16.23,5.01c9.33,8.17,10.18,23.27,10.21,23.91c0.1,1.98-1.43,3.67-3.42,3.77
			c-1.93,0.05-3.68-1.43-3.78-3.41c-0.01-0.13-0.75-12.73-7.78-18.87c-2.91-2.54-6.48-3.59-10.87-3.23
			c-6.67,0.55-10.97,4.18-13.13,11.09c-1.77,5.65-1.32,11.31-1.32,11.37c0.16,1.98-1.31,3.72-3.28,3.89
			C2976.62,470.54,2976.52,470.55,2976.42,470.55z"/>
		<path class="st6" d="M3033.59,672.68l-2.09,0.78c-5.5,17.27-12.49,33.2-21.39,45.6c-14.64,20.37-30.59,36.68-47.28,49.74
			c-0.12-0.14,0.67,0.86,0.55,0.72l-0.9-1.14c30.35,36.52,39.47,49.27,53.58,64.19l1.61-0.05L3033.59,672.68z"/>
		<path class="st7" d="M2921.86,857.26c-3.6,0-7.21-0.09-10.83-0.26c-47.14-2.26-119.46-20.25-196.27-93.13
			c-78.6-72.43-134.66-146.58-135.22-147.33l-2.63-3.5l3.94-1.91c0.86-0.42,86.61-42.26,161.78-98.75
			c78.69-59.14,164.7-142.11,165.56-142.94l2.55-2.46l2.51,2.51c1.13,1.13,113.93,114.22,168.44,195.35
			c63.57,94.61,25.43,188.75-31.46,245.29C3020.17,840,2972.78,857.26,2921.86,857.26z M2587.95,615.65
			c11.95,15.39,63.21,79.81,131.73,142.95c131.34,124.62,269.38,102.16,325.46,46.42c26.62-26.45,107.49-121.67,30.56-236.16
			c-49.63-73.86-148.17-174.66-165.07-191.77c-14.94,14.27-92.27,87.4-163.67,141.05C2680.44,568.13,2605.75,606.71,2587.95,615.65z
			"/>
		<path class="st7" d="M2611.16,650.73c-1.39,0-2.71-0.81-3.3-2.16c-0.8-1.82,0.03-3.95,1.85-4.75
			c1.56-0.69,158.4-70.57,327.86-243.48c1.4-1.42,3.68-1.44,5.1-0.05c1.42,1.39,1.44,3.68,0.05,5.1
			c-170.51,173.98-328.54,244.34-330.12,245.04C2612.13,650.63,2611.64,650.73,2611.16,650.73z"/>
		<path class="st7" d="M2910.67,375.64c-0.94,0-1.88-0.36-2.58-1.09c-1.39-1.43-1.36-3.71,0.07-5.1
			c0.25-0.24,25.08-24.48,47.89-54.2c1.21-1.58,3.47-1.87,5.05-0.67c1.58,1.21,1.88,3.48,0.67,5.05
			c-23.14,30.15-48.33,54.73-48.58,54.98C2912.49,375.3,2911.58,375.64,2910.67,375.64z"/>
		<path class="st6" d="M2794.57,702.54c-4.88,0-9.34-1.24-13.18-3.73c-7.78-5.06-11.38-14.68-9.63-25.72
			c3.15-19.84-9.34-37.96-9.46-38.14c-1.14-1.63-0.74-3.88,0.89-5.02c1.63-1.14,3.88-0.74,5.02,0.89
			c0.58,0.83,14.27,20.71,10.68,43.4c-1.31,8.27,1.04,15.03,6.44,18.55c6.97,4.53,17.87,2.87,29.18-4.45
			c1.67-1.08,3.9-0.6,4.98,1.07c1.08,1.67,0.61,3.9-1.07,4.98C2810.05,699.78,2801.86,702.54,2794.57,702.54z"/>
	</g>
	<path class="st6" d="M1576.19,2421.73c-0.79,0-1.59-0.26-2.25-0.79l-39.26-31.53c-1.55-1.25-1.8-3.51-0.55-5.07
		c1.25-1.55,3.52-1.8,5.07-0.55l39.26,31.53c1.55,1.25,1.8,3.51,0.55,5.07C1578.29,2421.27,1577.24,2421.73,1576.19,2421.73z"/>
	<polygon class="st7" points="1946.35,1367.03 2071.52,1329.48 1909.27,1476.8 1870.59,1434.11 	"/>
	<path class="st6" d="M1752.92,1574c-1.01,0-2.01-0.42-2.72-1.24c-1.31-1.5-1.15-3.78,0.35-5.08l454.57-395.87
		c1.5-1.31,3.78-1.15,5.08,0.35s1.15,3.78-0.35,5.08l-454.57,395.87C1754.6,1573.7,1753.76,1574,1752.92,1574z"/>
	<polygon class="st6" points="1855.4,1491.25 1845.37,1479.84 1878.08,1441.84 1897.17,1463.82 	"/>
	<polygon class="st6" points="2726.27,1831.7 2691.21,1834.67 2726.14,1832.63 	"/>
	<polygon class="st6" points="3654.85,1479.91 3415.94,1891.6 3440.96,2130.65 	"/>
	<path class="st11" d="M3972.78,162.13c0,60.39-48.96,109.35-109.35,109.35s-109.35-48.96-109.35-109.35s48.96-109.35,109.35-109.35
		S3972.78,101.74,3972.78,162.13z M3930.65,162.13c0-37.07-30.16-67.22-67.22-67.22c-37.07,0-67.22,30.15-67.22,67.22
		s30.15,67.22,67.22,67.22C3900.49,229.35,3930.65,199.19,3930.65,162.13z"/>
	<path class="st5" d="M1828.94,919.92c0,41.99-34.04,76.03-76.03,76.03c-41.99,0-76.03-34.04-76.03-76.03
		c0-41.99,34.04-76.03,76.03-76.03C1794.9,843.9,1828.94,877.94,1828.94,919.92z M1799.65,919.92c0-25.77-20.97-46.74-46.74-46.74
		s-46.74,20.97-46.74,46.74s20.97,46.74,46.74,46.74S1799.65,945.7,1799.65,919.92z"/>
	
		<ellipse transform="matrix(0.7071 -0.7071 0.7071 0.7071 700.0397 2636.0034)" class="st12" cx="3531.96" cy="472.98" rx="23.36" ry="23.36"/>
	
		<ellipse transform="matrix(0.2298 -0.9732 0.9732 0.2298 -89.5597 4823.5474)" class="st12" cx="3002.63" cy="2468.36" rx="52.59" ry="52.59"/>
	
		<ellipse transform="matrix(0.7071 -0.7071 0.7071 0.7071 -1607.9783 1338.4958)" class="st7" cx="811.72" cy="2610.25" rx="60.41" ry="60.41"/>
	<circle class="st7" cx="1895.14" cy="2343.39" r="23.87"/>
	
		<ellipse transform="matrix(0.7071 -0.7071 0.7071 0.7071 -40.2419 739.1613)" class="st5" cx="872.13" cy="418.16" rx="23.36" ry="23.36"/>
	
		<ellipse transform="matrix(0.7071 -0.7071 0.7071 0.7071 375.0318 3483.252)" class="st5" cx="4392.17" cy="1288.92" rx="23.36" ry="23.36"/>
	<g>
		
			<ellipse transform="matrix(0.7071 -0.7071 0.7071 0.7071 675.5927 3166.1592)" class="st5" cx="4159.69" cy="767.57" rx="90.93" ry="90.93"/>
		
			<rect x="4135.26" y="613" transform="matrix(0.9824 -0.1869 0.1869 0.9824 -53.7639 786.2275)" class="st5" width="14.87" height="130.47"/>
		
			<rect x="4169.25" y="791.66" transform="matrix(0.9824 -0.1869 0.1869 0.9824 -86.5564 795.7287)" class="st5" width="14.87" height="130.47"/>
		
			<rect x="4183.78" y="743.14" transform="matrix(0.9824 -0.1869 0.1869 0.9824 -65.4092 807.4028)" class="st5" width="130.47" height="14.87"/>
		
			<rect x="4005.13" y="777.13" transform="matrix(0.9824 -0.1869 0.1869 0.9824 -74.9108 774.604)" class="st5" width="130.47" height="14.87"/>
		
			<rect x="4043.31" y="835.32" transform="matrix(0.5625 -0.8268 0.8268 0.5625 1100.7625 3765.6943)" class="st5" width="130.47" height="14.87"/>
		
			<rect x="4145.6" y="684.95" transform="matrix(0.5625 -0.8268 0.8268 0.5625 1269.859 3784.5017)" class="st5" width="130.47" height="14.87"/>
		
			<rect x="4077.07" y="651.19" transform="matrix(0.5625 -0.8268 0.8268 0.5625 1194.6864 3690.5391)" class="st5" width="14.87" height="130.47"/>
		
			<rect x="4227.44" y="753.48" transform="matrix(0.5625 -0.8268 0.8268 0.5625 1175.8951 3859.6179)" class="st5" width="14.87" height="130.47"/>
		
			<ellipse transform="matrix(0.0593 -0.9982 0.9982 0.0593 3320.2573 5000.1055)" class="st5" cx="4313.1" cy="738.38" rx="15.41" ry="15.41"/>
		
			<ellipse transform="matrix(0.9541 -0.2995 0.2995 0.9541 -54.7246 1236.46)" class="st5" cx="4006.27" cy="796.76" rx="15.41" ry="15.41"/>
		
			<ellipse transform="matrix(0.5625 -0.8268 0.8268 0.5625 1071.2231 3866.3376)" class="st5" cx="4188.88" cy="920.98" rx="15.41" ry="15.41"/>
		
			<ellipse transform="matrix(0.5625 -0.8268 0.8268 0.5625 1299.3695 3683.8303)" class="st5" cx="4130.5" cy="614.15" rx="15.41" ry="15.41"/>
		<path class="st5" d="M4059.11,888.02c4.79-7.04,14.37-8.86,21.4-4.07c7.04,4.79,8.86,14.37,4.07,21.4
			c-4.79,7.04-14.37,8.86-21.4,4.07C4056.15,904.64,4054.32,895.05,4059.11,888.02z"/>
		
			<ellipse transform="matrix(0.9955 -0.0946 0.0946 0.9955 -41.3555 404.8068)" class="st5" cx="4247.53" cy="638.45" rx="15.41" ry="15.41"/>
		
			<ellipse transform="matrix(0.2415 -0.9704 0.9704 0.2415 2397.5464 4426.8257)" class="st5" cx="4030.57" cy="679.73" rx="15.41" ry="15.41"/>
		
			<ellipse transform="matrix(0.8241 -0.5665 0.5665 0.8241 269.9374 2580.0166)" class="st5" cx="4288.81" cy="855.41" rx="15.41" ry="15.41"/>
	</g>
	<g>
		
			<ellipse transform="matrix(4.819179e-03 -1 1 4.819179e-03 1539.0103 3591.4204)" class="st11" cx="2573.89" cy="1022.49" rx="55.61" ry="55.61"/>
		
			<rect x="2563.64" y="970.89" transform="matrix(0.533 -0.8461 0.8461 0.533 390.4275 2658.2974)" class="st11" width="79.79" height="9.09"/>
		
			<rect x="2504.35" y="1064.99" transform="matrix(0.5331 -0.8461 0.8461 0.5331 283.1075 2652.0559)" class="st11" width="79.79" height="9.09"/>
		
			<rect x="2616.4" y="1012.24" transform="matrix(0.533 -0.8461 0.8461 0.533 333.6646 2708.8396)" class="st11" width="9.09" height="79.79"/>
		
			<rect x="2522.29" y="952.95" transform="matrix(0.5331 -0.8461 0.8461 0.5331 339.8701 2601.5142)" class="st11" width="9.09" height="79.79"/>
		
			<rect x="2479.76" y="1030.25" transform="matrix(0.9752 -0.2213 0.2213 0.9752 -166.5491 583.3849)" class="st11" width="79.79" height="9.09"/>
		
			<rect x="2588.23" y="1005.63" transform="matrix(0.9752 -0.2213 0.2213 0.9752 -158.4104 606.7893)" class="st11" width="79.79" height="9.09"/>
		
			<rect x="2557.03" y="928.36" transform="matrix(0.9752 -0.2213 0.2213 0.9752 -150.7804 591.0139)" class="st11" width="9.09" height="79.79"/>
		
			<rect x="2581.65" y="1036.82" transform="matrix(0.9752 -0.2213 0.2213 0.9752 -174.1781 599.1536)" class="st11" width="9.09" height="79.79"/>
		<path class="st11" d="M2649.68,1081.37c-4.4-2.77-5.72-8.59-2.95-12.99c2.77-4.4,8.59-5.72,12.99-2.95s5.72,8.59,2.95,12.99
			S2654.08,1084.14,2649.68,1081.37z"/>
		
			<ellipse transform="matrix(0.9752 -0.2213 0.2213 0.9752 -153.2151 575.9363)" class="st11" cx="2493.08" cy="971.58" rx="9.42" ry="9.42"/>
		
			<ellipse transform="matrix(0.4228 -0.9062 0.9062 0.4228 456.4334 2923.2053)" class="st11" cx="2522.98" cy="1103.3" rx="9.42" ry="9.42"/>
		
			<ellipse transform="matrix(0.0536 -0.9986 0.9986 0.0536 1543.7625 3512.2246)" class="st11" cx="2624.8" cy="941.68" rx="9.42" ry="9.42"/>
		
			<ellipse transform="matrix(0.5331 -0.8461 0.8461 0.5331 275.3879 2586.2422)" class="st11" cx="2480.75" cy="1043.63" rx="9.42" ry="9.42"/>
		<path class="st11" d="M2664.94,992.16c5.07-1.15,10.12,2.03,11.27,7.1c1.15,5.07-2.03,10.12-7.1,11.27
			c-5.07,1.15-10.12-2.03-11.27-7.1C2656.69,998.36,2659.87,993.31,2664.94,992.16z"/>
		<path class="st11" d="M2561.94,927.26c1.15,5.07-2.03,10.12-7.1,11.27s-10.12-2.03-11.27-7.1c-1.15-5.07,2.03-10.12,7.1-11.27
			S2560.79,922.19,2561.94,927.26z"/>
		<path class="st11" d="M2604.22,1113.54c1.15,5.07-2.03,10.12-7.1,11.27c-5.07,1.15-10.12-2.03-11.27-7.1
			c-1.15-5.07,2.03-10.12,7.1-11.27C2598.02,1105.29,2603.07,1108.47,2604.22,1113.54z"/>
	</g>
	<g>
		
			<ellipse transform="matrix(0.7071 -0.7071 0.7071 0.7071 -283.5133 520.4758)" class="st5" cx="486.51" cy="602.47" rx="99.93" ry="99.93"/>
		
			<rect x="459.67" y="432.61" transform="matrix(0.9824 -0.1869 0.1869 0.9824 -86.0129 96.3286)" class="st5" width="16.34" height="143.38"/>
		
			<rect x="497.02" y="628.95" transform="matrix(0.9824 -0.1869 0.1869 0.9824 -122.0501 106.7694)" class="st5" width="16.34" height="143.38"/>
		
			<rect x="512.99" y="575.62" transform="matrix(0.9824 -0.1869 0.1869 0.9824 -98.8105 119.5676)" class="st5" width="143.38" height="16.34"/>
		
			<rect x="316.66" y="612.98" transform="matrix(0.9824 -0.1869 0.1869 0.9824 -109.252 83.5298)" class="st5" width="143.38" height="16.34"/>
		
			<rect x="358.62" y="676.92" transform="matrix(0.5625 -0.8268 0.8268 0.5625 -378.1728 655.5151)" class="st5" width="143.38" height="16.34"/>
		
			<rect x="471.03" y="511.68" transform="matrix(0.5625 -0.8268 0.8268 0.5625 -192.3651 676.1656)" class="st5" width="143.38" height="16.34"/>
		
			<rect x="395.72" y="474.57" transform="matrix(0.5625 -0.8268 0.8268 0.5625 -274.9436 572.9365)" class="st5" width="16.34" height="143.38"/>
		
			<rect x="560.97" y="586.99" transform="matrix(0.5625 -0.8268 0.8268 0.5625 -295.5942 758.7441)" class="st5" width="16.34" height="143.38"/>
		
			<ellipse transform="matrix(0.6642 -0.7476 0.7476 0.6642 -206.4143 681.2739)" class="st5" cx="655.11" cy="570.39" rx="16.93" ry="16.93"/>
		<path class="st5" d="M321.09,651.18c-9.19,1.75-18.05-4.28-19.8-13.47c-1.75-9.19,4.28-18.05,13.47-19.8
			c9.19-1.75,18.05,4.28,19.8,13.47C336.3,640.57,330.27,649.43,321.09,651.18z"/>
		<path class="st5" d="M501.96,774.23c-1.75-9.19,4.28-18.05,13.47-19.8c9.19-1.75,18.05,4.28,19.8,13.47
			c1.75,9.19-4.28,18.05-13.47,19.8S503.7,783.41,501.96,774.23z"/>
		
			<ellipse transform="matrix(0.2514 -0.9679 0.9679 0.2514 -79.7376 764.6619)" class="st5" cx="454.44" cy="433.88" rx="16.93" ry="16.93"/>
		
			<ellipse transform="matrix(0.3619 -0.9322 0.9322 0.3619 -445.061 838.5193)" class="st5" cx="389.98" cy="744.36" rx="16.93" ry="16.93"/>
		
			<ellipse transform="matrix(0.9824 -0.1869 0.1869 0.9824 -75.809 117.0896)" class="st5" cx="583.04" cy="460.57" rx="16.93" ry="16.93"/>
		
			<ellipse transform="matrix(0.9964 -0.0845 0.0845 0.9964 -41.5373 30.9446)" class="st5" cx="344.62" cy="505.94" rx="16.93" ry="16.93"/>
		<path class="st5" d="M637.93,685c7.73,5.26,9.73,15.79,4.48,23.52c-5.26,7.73-15.79,9.73-23.52,4.48
			c-7.73-5.26-9.73-15.79-4.48-23.52C619.67,681.75,630.2,679.74,637.93,685z"/>
	</g>
	<g>
		
			<ellipse transform="matrix(0.7071 -0.7071 0.7071 0.7071 -679.8688 3295.3625)" class="st11" cx="3637.92" cy="2468.36" rx="99.93" ry="99.93"/>
		
			<rect x="3611.07" y="2298.5" transform="matrix(0.9824 -0.1869 0.1869 0.9824 -379.2223 718.2236)" class="st11" width="16.34" height="143.38"/>
		
			<rect x="3648.43" y="2494.83" transform="matrix(0.9824 -0.1869 0.1869 0.9824 -415.2601 728.6652)" class="st11" width="16.34" height="143.38"/>
		
			<rect x="3664.4" y="2441.51" transform="matrix(0.9824 -0.1869 0.1869 0.9824 -392.0102 741.4385)" class="st11" width="143.38" height="16.34"/>
		
			<rect x="3468.06" y="2478.86" transform="matrix(0.9824 -0.1869 0.1869 0.9824 -402.462 705.4255)" class="st11" width="143.38" height="16.34"/>
		
			<rect x="3510.02" y="2542.81" transform="matrix(0.5625 -0.8268 0.8268 0.5625 -542.1119 4077.4829)" class="st11" width="143.38" height="16.34"/>
		
			<rect x="3622.44" y="2377.56" transform="matrix(0.5625 -0.8268 0.8268 0.5625 -356.3009 4098.1396)" class="st11" width="143.38" height="16.34"/>
		
			<rect x="3547.13" y="2340.46" transform="matrix(0.5625 -0.8268 0.8268 0.5625 -438.8881 3994.8901)" class="st11" width="16.34" height="143.38"/>
		
			<rect x="3712.37" y="2452.88" transform="matrix(0.5625 -0.8268 0.8268 0.5625 -459.533 4180.7124)" class="st11" width="16.34" height="143.38"/>
		<circle class="st11" cx="3806.51" cy="2436.28" r="16.93"/>
		
			<ellipse transform="matrix(0.9602 -0.2792 0.2792 0.9602 -560.1769 1068.1309)" class="st11" cx="3469.33" cy="2500.43" rx="16.93" ry="16.93"/>
		
			<ellipse transform="matrix(0.9081 -0.4188 0.4188 0.9081 -766.9955 1779.3514)" class="st11" cx="3670" cy="2636.95" rx="16.93" ry="16.93"/>
		<path class="st11" d="M3589.21,2302.93c-1.75-9.19,4.28-18.05,13.47-19.8c9.19-1.75,18.05,4.28,19.8,13.47
			c1.75,9.19-4.28,18.05-13.47,19.8C3599.82,2318.14,3590.96,2312.11,3589.21,2302.93z"/>
		
			<ellipse transform="matrix(0.9979 -0.0642 0.0642 0.9979 -160.3008 232.7863)" class="st11" cx="3541.39" cy="2610.25" rx="16.93" ry="16.93"/>
		
			<ellipse transform="matrix(0.9824 -0.1869 0.1869 0.9824 -369.0173 738.9808)" class="st11" cx="3734.45" cy="2326.46" rx="16.93" ry="16.93"/>
		
			<ellipse transform="matrix(0.9824 -0.1869 0.1869 0.9824 -381.6971 695.2175)" class="st11" cx="3496.03" cy="2371.82" rx="16.93" ry="16.93"/>
		
			<ellipse transform="matrix(0.9824 -0.1869 0.1869 0.9824 -412.7805 751.6605)" class="st11" cx="3779.81" cy="2564.89" rx="16.93" ry="16.93"/>
	</g>
</g>
</svg>
